<svg xmlns="http://www.w3.org/2000/svg" xmlns:xlink="http://www.w3.org/1999/xlink" width="395" zoomAndPan="magnify" viewBox="0 0 296.25 111.749997" height="149" preserveAspectRatio="xMidYMid meet" version="1.2"><defs><clipPath id="630b1f6aaa"><path d="M 0 34.746094 L 53 34.746094 L 53 89.359375 L 0 89.359375 Z M 0 34.746094 "/></clipPath></defs><g id="25d32e0051"><path style=" stroke:none;fill-rule:nonzero;fill:#0fa98a;fill-opacity:1;" d="M 26.40625 58.632812 L 26.40625 88.449219 L 0.925781 77.027344 L 0.925781 47.210938 Z M 26.40625 58.632812 "/><path style=" stroke:none;fill-rule:nonzero;fill:#0fa98a;fill-opacity:1;" d="M 51.886719 47.152344 L 51.886719 47.210938 L 26.40625 58.632812 L 0.925781 47.210938 L 0.925781 47.152344 L 26.40625 35.726562 Z M 51.886719 47.152344 "/><path style=" stroke:none;fill-rule:nonzero;fill:#ececec;fill-opacity:1;" d="M 51.886719 47.210938 L 51.886719 77.027344 L 26.40625 88.449219 L 26.40625 58.632812 Z M 51.886719 47.210938 "/><g clip-rule="nonzero" clip-path="url(#630b1f6aaa)"><path style=" stroke:none;fill-rule:nonzero;fill:#ffffff;fill-opacity:1;" d="M 52.199219 46.308594 L 26.71875 34.882812 C 26.480469 34.777344 26.242188 34.777344 26 34.882812 L 0.519531 46.308594 C 0.171875 46.460938 0 46.730469 0 47.109375 L 0 76.984375 C 0 77.363281 0.171875 77.628906 0.519531 77.785156 L 26 89.207031 C 26.242188 89.316406 26.480469 89.316406 26.71875 89.207031 L 52.199219 77.785156 C 52.546875 77.628906 52.71875 77.363281 52.71875 76.984375 L 52.71875 47.109375 C 52.71875 46.730469 52.546875 46.460938 52.199219 46.308594 Z M 25.480469 87.050781 L 1.757812 76.414062 L 1.757812 48.527344 L 25.480469 59.160156 Z M 26.359375 57.628906 L 2.957031 47.136719 L 26.359375 36.648438 L 49.761719 47.136719 Z M 50.964844 76.414062 L 27.238281 87.050781 L 27.238281 59.160156 L 50.964844 48.527344 Z M 50.964844 76.414062 "/></g><g style="fill:#000000;fill-opacity:1;"><g transform="translate(61.284747, 78.222982)"><path style="stroke:none" d="M 35.4375 -7.625 L 37.203125 -5.796875 C 37.597656 -5.398438 37.578125 -5.003906 37.140625 -4.609375 C 35.296875 -2.878906 33.273438 -1.554688 31.078125 -0.640625 C 28.878906 0.273438 26.425781 0.734375 23.71875 0.734375 C 21.457031 0.734375 19.316406 0.394531 17.296875 -0.28125 C 15.285156 -0.96875 13.445312 -1.9375 11.78125 -3.1875 C 10.125 -4.4375 8.6875 -5.914062 7.46875 -7.625 C 6.257812 -9.332031 5.328125 -11.207031 4.671875 -13.25 C 4.023438 -15.300781 3.703125 -17.460938 3.703125 -19.734375 C 3.703125 -22.023438 4.023438 -24.195312 4.671875 -26.25 C 5.328125 -28.3125 6.257812 -30.195312 7.46875 -31.90625 C 8.6875 -33.613281 10.125 -35.09375 11.78125 -36.34375 C 13.445312 -37.59375 15.285156 -38.554688 17.296875 -39.234375 C 19.316406 -39.921875 21.457031 -40.265625 23.71875 -40.265625 C 26.425781 -40.265625 28.878906 -39.785156 31.078125 -38.828125 C 33.273438 -37.867188 35.296875 -36.566406 37.140625 -34.921875 C 37.347656 -34.753906 37.460938 -34.566406 37.484375 -34.359375 C 37.503906 -34.148438 37.410156 -33.941406 37.203125 -33.734375 L 35.4375 -31.90625 C 35.070312 -31.539062 34.671875 -31.539062 34.234375 -31.90625 C 32.773438 -33.175781 31.191406 -34.164062 29.484375 -34.875 C 27.785156 -35.582031 25.863281 -35.9375 23.71875 -35.9375 C 21.570312 -35.9375 19.5625 -35.53125 17.6875 -34.71875 C 15.8125 -33.90625 14.160156 -32.769531 12.734375 -31.3125 C 11.316406 -29.851562 10.203125 -28.132812 9.390625 -26.15625 C 8.585938 -24.1875 8.1875 -22.046875 8.1875 -19.734375 C 8.1875 -17.441406 8.585938 -15.304688 9.390625 -13.328125 C 10.203125 -11.359375 11.316406 -9.648438 12.734375 -8.203125 C 14.160156 -6.753906 15.8125 -5.617188 17.6875 -4.796875 C 19.5625 -3.984375 21.570312 -3.578125 23.71875 -3.578125 C 25.863281 -3.578125 27.785156 -3.929688 29.484375 -4.640625 C 31.191406 -5.359375 32.773438 -6.351562 34.234375 -7.625 C 34.671875 -7.976562 35.070312 -7.976562 35.4375 -7.625 Z M 35.4375 -7.625 "/></g></g><g style="fill:#000000;fill-opacity:1;"><g transform="translate(100.887481, 78.222982)"><path style="stroke:none" d="M 18.203125 0.734375 C 16.171875 0.734375 14.269531 0.363281 12.5 -0.375 C 10.726562 -1.125 9.171875 -2.160156 7.828125 -3.484375 C 6.492188 -4.816406 5.445312 -6.367188 4.6875 -8.140625 C 3.9375 -9.921875 3.5625 -11.832031 3.5625 -13.875 C 3.5625 -15.925781 3.9375 -17.835938 4.6875 -19.609375 C 5.445312 -21.378906 6.492188 -22.925781 7.828125 -24.25 C 9.171875 -25.582031 10.726562 -26.625 12.5 -27.375 C 14.269531 -28.125 16.171875 -28.5 18.203125 -28.5 C 20.234375 -28.5 22.128906 -28.125 23.890625 -27.375 C 25.648438 -26.625 27.195312 -25.582031 28.53125 -24.25 C 29.875 -22.925781 30.921875 -21.378906 31.671875 -19.609375 C 32.429688 -17.835938 32.8125 -15.925781 32.8125 -13.875 C 32.8125 -11.832031 32.429688 -9.921875 31.671875 -8.140625 C 30.921875 -6.367188 29.875 -4.816406 28.53125 -3.484375 C 27.195312 -2.160156 25.648438 -1.125 23.890625 -0.375 C 22.128906 0.363281 20.234375 0.734375 18.203125 0.734375 Z M 18.203125 -3.234375 C 19.660156 -3.234375 21.023438 -3.507812 22.296875 -4.0625 C 23.566406 -4.613281 24.675781 -5.378906 25.625 -6.359375 C 26.570312 -7.335938 27.3125 -8.460938 27.84375 -9.734375 C 28.375 -11.015625 28.640625 -12.394531 28.640625 -13.875 C 28.640625 -15.332031 28.375 -16.707031 27.84375 -18 C 27.3125 -19.289062 26.570312 -20.421875 25.625 -21.390625 C 24.675781 -22.367188 23.566406 -23.132812 22.296875 -23.6875 C 21.023438 -24.238281 19.660156 -24.515625 18.203125 -24.515625 C 16.722656 -24.515625 15.351562 -24.238281 14.09375 -23.6875 C 12.832031 -23.132812 11.722656 -22.367188 10.765625 -21.390625 C 9.804688 -20.421875 9.0625 -19.289062 8.53125 -18 C 8 -16.707031 7.734375 -15.332031 7.734375 -13.875 C 7.734375 -12.394531 8 -11.015625 8.53125 -9.734375 C 9.0625 -8.460938 9.804688 -7.335938 10.765625 -6.359375 C 11.722656 -5.378906 12.832031 -4.613281 14.09375 -4.0625 C 15.351562 -3.507812 16.722656 -3.234375 18.203125 -3.234375 Z M 18.203125 -3.234375 "/></g></g><g style="fill:#000000;fill-opacity:1;"><g transform="translate(136.680716, 78.222982)"><path style="stroke:none" d="M 30.578125 -39.8125 C 30.835938 -39.8125 31.039062 -39.734375 31.1875 -39.578125 C 31.34375 -39.429688 31.421875 -39.222656 31.421875 -38.953125 L 31.421875 -0.859375 C 31.421875 -0.609375 31.34375 -0.398438 31.1875 -0.234375 C 31.039062 -0.078125 30.835938 0 30.578125 0 L 28.234375 0 C 27.722656 0 27.441406 -0.285156 27.390625 -0.859375 L 27.125 -4.15625 C 26.050781 -2.695312 24.671875 -1.515625 22.984375 -0.609375 C 21.296875 0.285156 19.296875 0.734375 16.984375 0.734375 C 14.972656 0.734375 13.144531 0.367188 11.5 -0.359375 C 9.863281 -1.085938 8.453125 -2.109375 7.265625 -3.421875 C 6.078125 -4.742188 5.160156 -6.296875 4.515625 -8.078125 C 3.878906 -9.859375 3.5625 -11.789062 3.5625 -13.875 C 3.5625 -15.957031 3.867188 -17.890625 4.484375 -19.671875 C 5.097656 -21.460938 5.988281 -23.015625 7.15625 -24.328125 C 8.320312 -25.648438 9.734375 -26.675781 11.390625 -27.40625 C 13.046875 -28.132812 14.910156 -28.5 16.984375 -28.5 C 18.679688 -28.5 20.164062 -28.242188 21.4375 -27.734375 C 22.707031 -27.234375 23.78125 -26.566406 24.65625 -25.734375 C 25.53125 -24.898438 26.210938 -23.984375 26.703125 -22.984375 L 27.15625 -22.984375 L 27.15625 -38.953125 C 27.15625 -39.222656 27.234375 -39.429688 27.390625 -39.578125 C 27.554688 -39.734375 27.765625 -39.8125 28.015625 -39.8125 Z M 17.65625 -3.234375 C 19.632812 -3.234375 21.351562 -3.6875 22.8125 -4.59375 C 24.269531 -5.507812 25.398438 -6.773438 26.203125 -8.390625 C 27.003906 -10.003906 27.40625 -11.851562 27.40625 -13.9375 C 27.40625 -16.019531 27.003906 -17.859375 26.203125 -19.453125 C 25.398438 -21.046875 24.269531 -22.285156 22.8125 -23.171875 C 21.351562 -24.066406 19.632812 -24.515625 17.65625 -24.515625 C 15.59375 -24.515625 13.820312 -24.066406 12.34375 -23.171875 C 10.863281 -22.285156 9.722656 -21.046875 8.921875 -19.453125 C 8.128906 -17.859375 7.734375 -16.019531 7.734375 -13.9375 C 7.734375 -11.851562 8.128906 -10.003906 8.921875 -8.390625 C 9.722656 -6.773438 10.863281 -5.507812 12.34375 -4.59375 C 13.820312 -3.6875 15.59375 -3.234375 17.65625 -3.234375 Z M 17.65625 -3.234375 "/></g></g><g style="fill:#000000;fill-opacity:1;"><g transform="translate(172.644632, 78.222982)"><path style="stroke:none" d="M 30.578125 -39.8125 C 30.835938 -39.8125 31.039062 -39.734375 31.1875 -39.578125 C 31.34375 -39.429688 31.421875 -39.222656 31.421875 -38.953125 L 31.421875 -0.859375 C 31.421875 -0.609375 31.34375 -0.398438 31.1875 -0.234375 C 31.039062 -0.078125 30.835938 0 30.578125 0 L 28.234375 0 C 27.722656 0 27.441406 -0.285156 27.390625 -0.859375 L 27.125 -4.15625 C 26.050781 -2.695312 24.671875 -1.515625 22.984375 -0.609375 C 21.296875 0.285156 19.296875 0.734375 16.984375 0.734375 C 14.972656 0.734375 13.144531 0.367188 11.5 -0.359375 C 9.863281 -1.085938 8.453125 -2.109375 7.265625 -3.421875 C 6.078125 -4.742188 5.160156 -6.296875 4.515625 -8.078125 C 3.878906 -9.859375 3.5625 -11.789062 3.5625 -13.875 C 3.5625 -15.957031 3.867188 -17.890625 4.484375 -19.671875 C 5.097656 -21.460938 5.988281 -23.015625 7.15625 -24.328125 C 8.320312 -25.648438 9.734375 -26.675781 11.390625 -27.40625 C 13.046875 -28.132812 14.910156 -28.5 16.984375 -28.5 C 18.679688 -28.5 20.164062 -28.242188 21.4375 -27.734375 C 22.707031 -27.234375 23.78125 -26.566406 24.65625 -25.734375 C 25.53125 -24.898438 26.210938 -23.984375 26.703125 -22.984375 L 27.15625 -22.984375 L 27.15625 -38.953125 C 27.15625 -39.222656 27.234375 -39.429688 27.390625 -39.578125 C 27.554688 -39.734375 27.765625 -39.8125 28.015625 -39.8125 Z M 17.65625 -3.234375 C 19.632812 -3.234375 21.351562 -3.6875 22.8125 -4.59375 C 24.269531 -5.507812 25.398438 -6.773438 26.203125 -8.390625 C 27.003906 -10.003906 27.40625 -11.851562 27.40625 -13.9375 C 27.40625 -16.019531 27.003906 -17.859375 26.203125 -19.453125 C 25.398438 -21.046875 24.269531 -22.285156 22.8125 -23.171875 C 21.351562 -24.066406 19.632812 -24.515625 17.65625 -24.515625 C 15.59375 -24.515625 13.820312 -24.066406 12.34375 -23.171875 C 10.863281 -22.285156 9.722656 -21.046875 8.921875 -19.453125 C 8.128906 -17.859375 7.734375 -16.019531 7.734375 -13.9375 C 7.734375 -11.851562 8.128906 -10.003906 8.921875 -8.390625 C 9.722656 -6.773438 10.863281 -5.507812 12.34375 -4.59375 C 13.820312 -3.6875 15.59375 -3.234375 17.65625 -3.234375 Z M 17.65625 -3.234375 "/></g></g><g style="fill:#000000;fill-opacity:1;"><g transform="translate(208.608548, 78.222982)"><path style="stroke:none" d="M 17.09375 -34.515625 C 16.332031 -34.515625 15.6875 -34.78125 15.15625 -35.3125 C 14.625 -35.84375 14.359375 -36.488281 14.359375 -37.25 C 14.359375 -38.03125 14.625 -38.679688 15.15625 -39.203125 C 15.6875 -39.722656 16.332031 -39.984375 17.09375 -39.984375 C 17.863281 -39.984375 18.507812 -39.722656 19.03125 -39.203125 C 19.5625 -38.679688 19.828125 -38.03125 19.828125 -37.25 C 19.828125 -36.488281 19.5625 -35.84375 19.03125 -35.3125 C 18.507812 -34.78125 17.863281 -34.515625 17.09375 -34.515625 Z M 28.578125 -3.8125 C 28.847656 -3.8125 29.054688 -3.734375 29.203125 -3.578125 C 29.359375 -3.429688 29.4375 -3.222656 29.4375 -2.953125 L 29.4375 -0.859375 C 29.4375 -0.609375 29.359375 -0.398438 29.203125 -0.234375 C 29.054688 -0.078125 28.847656 0 28.578125 0 L 4.40625 0 C 4.15625 0 3.953125 -0.078125 3.796875 -0.234375 C 3.640625 -0.398438 3.5625 -0.609375 3.5625 -0.859375 L 3.5625 -2.953125 C 3.5625 -3.222656 3.640625 -3.429688 3.796875 -3.578125 C 3.953125 -3.734375 4.15625 -3.8125 4.40625 -3.8125 L 15.09375 -3.8125 L 15.09375 -24.0625 L 5.828125 -24.0625 C 5.578125 -24.0625 5.375 -24.140625 5.21875 -24.296875 C 5.0625 -24.460938 4.984375 -24.664062 4.984375 -24.90625 L 4.984375 -27.015625 C 4.984375 -27.273438 5.0625 -27.484375 5.21875 -27.640625 C 5.375 -27.796875 5.578125 -27.875 5.828125 -27.875 L 18.515625 -27.875 C 18.773438 -27.875 18.976562 -27.796875 19.125 -27.640625 C 19.28125 -27.484375 19.359375 -27.273438 19.359375 -27.015625 L 19.359375 -3.8125 Z M 28.578125 -3.8125 "/></g></g><g style="fill:#000000;fill-opacity:1;"><g transform="translate(239.881247, 78.222982)"><path style="stroke:none" d="M 17.4375 -28.5 C 19.5 -28.5 21.34375 -28.128906 22.96875 -27.390625 C 24.601562 -26.648438 25.988281 -25.640625 27.125 -24.359375 C 28.257812 -23.078125 29.125 -21.617188 29.71875 -19.984375 C 30.320312 -18.359375 30.625 -16.644531 30.625 -14.84375 C 30.625 -13.875 30.53125 -13.15625 30.34375 -12.6875 C 30.15625 -12.226562 29.703125 -12 28.984375 -12 L 7.734375 -12 C 7.960938 -10.257812 8.535156 -8.707031 9.453125 -7.34375 C 10.367188 -5.976562 11.585938 -4.90625 13.109375 -4.125 C 14.628906 -3.34375 16.375 -2.953125 18.34375 -2.953125 C 20.082031 -2.953125 21.566406 -3.234375 22.796875 -3.796875 C 24.035156 -4.367188 25.109375 -5.054688 26.015625 -5.859375 C 26.222656 -6.023438 26.414062 -6.140625 26.59375 -6.203125 C 26.78125 -6.273438 26.988281 -6.195312 27.21875 -5.96875 L 28.359375 -4.828125 C 28.804688 -4.378906 28.820312 -3.945312 28.40625 -3.53125 C 27.039062 -2.164062 25.484375 -1.113281 23.734375 -0.375 C 21.992188 0.363281 20.046875 0.734375 17.890625 0.734375 C 15.722656 0.734375 13.765625 0.363281 12.015625 -0.375 C 10.265625 -1.125 8.757812 -2.160156 7.5 -3.484375 C 6.238281 -4.816406 5.265625 -6.367188 4.578125 -8.140625 C 3.898438 -9.921875 3.5625 -11.832031 3.5625 -13.875 C 3.5625 -15.925781 3.894531 -17.835938 4.5625 -19.609375 C 5.238281 -21.378906 6.191406 -22.925781 7.421875 -24.25 C 8.648438 -25.582031 10.113281 -26.625 11.8125 -27.375 C 13.507812 -28.125 15.382812 -28.5 17.4375 -28.5 Z M 17.4375 -24.734375 C 15.664062 -24.734375 14.085938 -24.332031 12.703125 -23.53125 C 11.328125 -22.726562 10.207031 -21.628906 9.34375 -20.234375 C 8.476562 -18.835938 7.941406 -17.25 7.734375 -15.46875 L 26.875 -15.46875 C 26.800781 -17.21875 26.347656 -18.785156 25.515625 -20.171875 C 24.691406 -21.566406 23.585938 -22.675781 22.203125 -23.5 C 20.828125 -24.320312 19.238281 -24.734375 17.4375 -24.734375 Z M 17.4375 -24.734375 "/></g></g></g></svg>